<svg width="70" height="70" viewBox="0 0 70 70" fill="none" xmlns="http://www.w3.org/2000/svg">
<circle cx="35" cy="35" r="32.5" stroke="#F7F7F7" stroke-width="5"/>
<path d="M37.68 33.56C40.2667 33.88 42.24 34.76 43.6 36.2C44.96 37.64 45.64 39.44 45.64 41.6C45.64 43.2267 45.2267 44.7067 44.4 46.04C43.5733 47.3733 42.32 48.44 40.64 49.24C38.9867 50.0133 36.96 50.4 34.56 50.4C32.56 50.4 30.6267 50.12 28.76 49.56C26.92 48.9733 25.3467 48.1733 24.04 47.16L26.28 43.12C27.2933 43.9733 28.52 44.6533 29.96 45.16C31.4267 45.64 32.9333 45.88 34.48 45.88C36.32 45.88 37.76 45.5067 38.8 44.76C39.8667 43.9867 40.4 42.9467 40.4 41.64C40.4 40.3333 39.8933 39.32 38.88 38.6C37.8933 37.8533 36.3733 37.48 34.32 37.48H31.76V33.92L38.12 26.36H25.4V22H44.48V25.48L37.68 33.56Z" fill="white"/>
</svg>
