<svg width="555" height="492" viewBox="0 0 555 492" fill="none" xmlns="http://www.w3.org/2000/svg">
<g clip-path="url(#clip0_127_63)">
<path d="M513.862 455.983L528.812 451.139C530.675 442.944 530.552 434.408 528.452 426.273C522.446 439.913 504.824 443.255 494.784 454.142C491.678 457.562 489.366 461.652 488.018 466.109C486.67 470.566 486.321 475.276 486.998 479.889L483.852 490.787C491.198 490.146 498.321 487.886 504.73 484.162C511.139 480.439 516.681 475.341 520.974 469.219C523.35 465.761 525.29 462.01 526.748 458.057C520.372 457.405 513.862 455.983 513.862 455.983Z" fill="#F2F2F2"/>
<path d="M497.887 435.831L509.153 424.686C507.242 416.502 503.404 408.919 497.973 402.594C498.553 417.538 484.24 428.556 480.008 442.874C478.721 447.349 478.437 452.064 479.177 456.667C479.917 461.27 481.661 465.644 484.281 469.465L486.224 480.652C492.519 476.732 497.908 471.465 502.018 465.213C506.128 458.961 508.862 451.874 510.033 444.439C510.649 440.261 510.747 436.021 510.326 431.818C504.334 434.139 497.887 435.831 497.887 435.831Z" fill="#F2F2F2"/>
<path d="M422.996 32.6672H1.63909C1.20083 32.6577 0.783659 32.4732 0.476993 32.1533C0.170327 31.8334 -0.00141907 31.4035 -0.00141907 30.9558C-0.00141907 30.5081 0.170327 30.0782 0.476993 29.7583C0.783659 29.4383 1.20083 29.2539 1.63909 29.2444H422.996C423.434 29.2539 423.851 29.4383 424.158 29.7583C424.465 30.0782 424.637 30.5081 424.637 30.9558C424.637 31.4035 424.465 31.8334 424.158 32.1533C423.851 32.4732 423.434 32.6577 422.996 32.6672Z" fill="#3F3D56"/>
<path d="M30.3214 20.5063C35.7448 20.5063 40.1413 15.9158 40.1413 10.2532C40.1413 4.59049 35.7448 0 30.3214 0C24.898 0 20.5015 4.59049 20.5015 10.2532C20.5015 15.9158 24.898 20.5063 30.3214 20.5063Z" fill="#3F3D56"/>
<path d="M64.2447 20.5063C69.6681 20.5063 74.0647 15.9158 74.0647 10.2532C74.0647 4.59049 69.6681 0 64.2447 0C58.8213 0 54.4248 4.59049 54.4248 10.2532C54.4248 15.9158 58.8213 20.5063 64.2447 20.5063Z" fill="#3F3D56"/>
<path d="M98.1681 20.5063C103.591 20.5063 107.988 15.9158 107.988 10.2532C107.988 4.59049 103.591 0 98.1681 0C92.7447 0 88.3482 4.59049 88.3482 10.2532C88.3482 15.9158 92.7447 20.5063 98.1681 20.5063Z" fill="#3F3D56"/>
<path d="M402.571 2.54138H378.474C377.996 2.5511 377.541 2.7517 377.207 3.10013C376.873 3.44856 376.685 3.91703 376.685 4.40495C376.685 4.89287 376.873 5.36134 377.207 5.70977C377.541 6.0582 377.996 6.25881 378.474 6.26852H402.571C403.049 6.25881 403.504 6.0582 403.838 5.70977C404.173 5.36134 404.36 4.89287 404.36 4.40495C404.36 3.91703 404.173 3.44856 403.838 3.10013C403.504 2.7517 403.049 2.5511 402.571 2.54138Z" fill="#3F3D56"/>
<path d="M402.571 9.53662H378.474C377.996 9.54627 377.541 9.74686 377.207 10.0953C376.872 10.4437 376.685 10.9122 376.685 11.4002C376.685 11.8882 376.872 12.3567 377.207 12.7051C377.541 13.0535 377.996 13.2541 378.474 13.2638H402.571C403.049 13.2541 403.504 13.0535 403.838 12.7051C404.173 12.3567 404.36 11.8882 404.36 11.4002C404.36 10.9122 404.173 10.4437 403.838 10.0953C403.504 9.74686 403.049 9.54627 402.571 9.53662Z" fill="#3F3D56"/>
<path d="M402.571 16.5228H378.474C377.996 16.5324 377.541 16.733 377.207 17.0814C376.872 17.4299 376.685 17.8984 376.685 18.3863C376.685 18.8743 376.872 19.3428 377.207 19.6912C377.541 20.0397 377.996 20.2403 378.474 20.2499H402.571C403.049 20.2403 403.504 20.0397 403.838 19.6912C404.173 19.3428 404.36 18.8743 404.36 18.3863C404.36 17.8984 404.173 17.4299 403.838 17.0814C403.504 16.733 403.049 16.5324 402.571 16.5228Z" fill="#3F3D56"/>
<path d="M32.6419 102.2C39.3468 102.2 44.7823 96.6485 44.7823 89.8004C44.7823 82.9522 39.3468 77.4007 32.6419 77.4007C25.9369 77.4007 20.5015 82.9522 20.5015 89.8004C20.5015 96.6485 25.9369 102.2 32.6419 102.2Z" fill="#E6E7E8"/>
<path d="M341.799 117.258H24.1168C23.158 117.258 22.2385 116.869 21.5605 116.176C20.8825 115.484 20.5017 114.544 20.5017 113.565C20.5017 112.586 20.8825 111.647 21.5605 110.954C22.2385 110.262 23.158 109.873 24.1168 109.873H341.799C342.758 109.873 343.677 110.262 344.355 110.954C345.033 111.647 345.414 112.586 345.414 113.565C345.414 114.544 345.033 115.484 344.355 116.176C343.677 116.869 342.758 117.258 341.799 117.258Z" fill="#E6E7E8"/>
<path d="M258.481 131.848H24.1168C23.158 131.848 22.2384 131.459 21.5604 130.767C20.8824 130.074 20.5015 129.135 20.5015 128.155C20.5015 127.176 20.8824 126.237 21.5604 125.544C22.2384 124.852 23.158 124.463 24.1168 124.463H258.481C259.44 124.463 260.359 124.852 261.037 125.544C261.715 126.237 262.096 127.176 262.096 128.155C262.096 129.135 261.715 130.074 261.037 130.767C260.359 131.459 259.44 131.848 258.481 131.848Z" fill="#E6E7E8"/>
<path d="M32.6419 295.74C39.3468 295.74 44.7823 290.188 44.7823 283.34C44.7823 276.492 39.3468 270.94 32.6419 270.94C25.9369 270.94 20.5015 276.492 20.5015 283.34C20.5015 290.188 25.9369 295.74 32.6419 295.74Z" fill="#E6E7E8"/>
<path d="M341.799 310.797H24.1168C23.6416 310.798 23.1708 310.703 22.7316 310.518C22.2923 310.333 21.8931 310.061 21.5568 309.718C21.2205 309.375 20.9537 308.968 20.7716 308.519C20.5896 308.071 20.4959 307.59 20.4959 307.105C20.4959 306.62 20.5896 306.139 20.7716 305.691C20.9537 305.242 21.2205 304.835 21.5568 304.492C21.8931 304.149 22.2923 303.877 22.7316 303.692C23.1708 303.507 23.6416 303.412 24.1168 303.413H341.799C342.806 303.47 343.756 303.91 344.462 304.645C345.168 305.381 345.579 306.36 345.615 307.39C345.585 307.87 345.462 308.34 345.254 308.771C345.046 309.203 344.756 309.588 344.401 309.905C344.047 310.222 343.634 310.464 343.187 310.617C342.741 310.77 342.269 310.831 341.799 310.797Z" fill="#E6E7E8"/>
<path d="M258.481 325.388H24.1168C23.158 325.388 22.2384 324.999 21.5604 324.306C20.8824 323.614 20.5015 322.674 20.5015 321.695C20.5015 320.716 20.8824 319.777 21.5604 319.084C22.2384 318.392 23.158 318.003 24.1168 318.003H258.481C259.44 318.003 260.359 318.392 261.037 319.084C261.715 319.777 262.096 320.716 262.096 321.695C262.096 322.674 261.715 323.614 261.037 324.306C260.359 324.999 259.44 325.388 258.481 325.388Z" fill="#E6E7E8"/>
<path d="M32.6419 191.675C39.3468 191.675 44.7823 186.123 44.7823 179.275C44.7823 172.427 39.3468 166.875 32.6419 166.875C25.9369 166.875 20.5015 172.427 20.5015 179.275C20.5015 186.123 25.9369 191.675 32.6419 191.675Z" fill="#E6E7E8"/>
<path d="M341.799 206.732H24.1168C23.158 206.732 22.2385 206.343 21.5605 205.651C20.8825 204.958 20.5017 204.019 20.5017 203.04C20.5017 202.061 20.8825 201.121 21.5605 200.429C22.2385 199.736 23.158 199.347 24.1168 199.347H341.799C342.758 199.347 343.677 199.736 344.355 200.429C345.033 201.121 345.414 202.061 345.414 203.04C345.414 204.019 345.033 204.958 344.355 205.651C343.677 206.343 342.758 206.732 341.799 206.732Z" fill="#E6E7E8"/>
<path d="M297.559 221.323H24.1168C23.158 221.323 22.2384 220.934 21.5604 220.241C20.8824 219.549 20.5015 218.609 20.5015 217.63C20.5015 216.651 20.8824 215.711 21.5604 215.019C22.2384 214.327 23.158 213.938 24.1168 213.938H297.559C298.518 213.938 299.438 214.327 300.116 215.019C300.794 215.711 301.175 216.651 301.175 217.63C301.175 218.609 300.794 219.549 300.116 220.241C299.438 220.934 298.518 221.323 297.559 221.323Z" fill="#E6E7E8"/>
<path d="M279 235.913H24.1168C23.158 235.913 22.2384 235.524 21.5604 234.832C20.8824 234.139 20.5015 233.2 20.5015 232.221C20.5015 231.241 20.8824 230.302 21.5604 229.609C22.2384 228.917 23.158 228.528 24.1168 228.528H279C279.959 228.528 280.878 228.917 281.556 229.609C282.234 230.302 282.615 231.241 282.615 232.221C282.615 233.2 282.234 234.139 281.556 234.832C280.878 235.524 279.959 235.913 279 235.913Z" fill="#E6E7E8"/>
<path d="M284.274 399.153C333.928 399.153 374.18 358.041 374.18 307.327C374.18 256.613 333.928 215.501 284.274 215.501C234.62 215.501 194.368 256.613 194.368 307.327C194.368 358.041 234.62 399.153 284.274 399.153Z" fill="white"/>
<path d="M284.15 339.365C291.244 339.365 296.994 333.492 296.994 326.247C296.994 319.002 291.244 313.129 284.15 313.129C277.057 313.129 271.307 319.002 271.307 326.247C271.307 333.492 277.057 339.365 284.15 339.365Z" fill="#3F3D56"/>
<path d="M284.15 332.302C287.424 332.302 290.078 329.591 290.078 326.247C290.078 322.903 287.424 320.193 284.15 320.193C280.876 320.193 278.222 322.903 278.222 326.247C278.222 329.591 280.876 332.302 284.15 332.302Z" fill="white"/>
<path d="M307.992 355.448H260.556C255.859 355.443 251.356 353.535 248.034 350.143C244.713 346.751 242.845 342.151 242.839 337.354V315.14C242.845 310.343 244.713 305.743 248.034 302.351C251.356 298.959 255.859 297.051 260.556 297.045H307.992C312.689 297.051 317.192 298.959 320.513 302.351C323.835 305.744 325.703 310.343 325.708 315.14V337.354C325.703 342.151 323.835 346.75 320.513 350.143C317.192 353.535 312.689 355.443 307.992 355.448ZM260.556 298.94C256.351 298.945 252.319 300.653 249.345 303.69C246.372 306.727 244.699 310.845 244.694 315.14V337.354C244.699 341.649 246.372 345.767 249.345 348.804C252.319 351.841 256.351 353.549 260.556 353.553H307.992C312.197 353.549 316.229 351.841 319.202 348.804C322.176 345.767 323.848 341.649 323.853 337.354V315.14C323.849 310.845 322.176 306.727 319.202 303.69C316.229 300.653 312.197 298.945 307.992 298.94L260.556 298.94Z" fill="white"/>
<path d="M257.746 343.39H299.851C302.036 343.39 304.2 342.95 306.219 342.096C308.238 341.242 310.073 339.99 311.618 338.412C313.164 336.833 314.389 334.96 315.226 332.897C316.062 330.835 316.492 328.625 316.492 326.393V307.803C316.489 305.742 316.117 303.698 315.395 301.773C317.449 303.353 319.116 305.399 320.263 307.749C321.411 310.099 322.009 312.689 322.009 315.315V333.905C322.009 336.137 321.578 338.347 320.742 340.409C319.906 342.472 318.68 344.345 317.134 345.924C315.589 347.502 313.755 348.754 311.735 349.608C309.716 350.462 307.552 350.902 305.367 350.902H263.263C259.888 350.9 256.594 349.85 253.818 347.891C251.042 345.932 248.915 343.157 247.719 339.935C250.601 342.177 254.124 343.391 257.746 343.39Z" fill="#3F3D56"/>
<path d="M386.683 479.852L376.338 479.851L371.416 439.091L386.686 439.092L386.683 479.852Z" fill="#A0616A"/>
<path d="M387.048 490.875L355.232 490.874V490.463C355.233 487.109 356.537 483.892 358.86 481.52C361.182 479.148 364.332 477.815 367.616 477.815H367.617L373.428 473.312L384.271 477.816L387.049 477.816L387.048 490.875Z" fill="#2F2E41"/>
<path d="M459.89 479.852L470.236 479.851L475.158 439.091L459.888 439.092L459.89 479.852Z" fill="#A0616A"/>
<path d="M459.526 490.875L491.342 490.874V490.463C491.341 487.109 490.037 483.892 487.714 481.52C485.392 479.148 482.242 477.815 478.958 477.815H478.957L473.146 473.312L462.302 477.816L459.525 477.816L459.526 490.875Z" fill="#2F2E41"/>
<path d="M370.96 409.139C371.113 406.813 372.328 393.951 372.328 393.951L375.238 366.674L380.367 294.368L380.702 289.634L407.569 284.366L425.931 275.375L447.757 282.501L464.751 289.01C464.751 289.01 464.78 291.797 464.911 295.163C465.086 299.569 465.391 304.971 466.119 306.375C467.334 308.857 467.028 322.18 467.028 322.18C467.028 322.18 468.236 349.286 469.757 352.259C471.277 355.231 471.583 361.42 471.124 362.661C470.666 363.902 472.645 396.455 472.645 396.455C472.645 396.455 477.724 454.062 474.537 462.748C471.351 471.435 459.31 465.745 459.31 465.745C459.31 465.745 459.891 463.426 456.399 462.334C452.907 461.242 442.271 379.558 442.271 379.558C442.271 379.558 440.292 362.81 438.474 358.01C436.655 353.21 434.982 339.723 434.982 339.723C434.982 339.723 423.749 317.402 423.603 312.438C423.603 312.438 422.134 307.794 420.744 312.907C419.355 318.019 415.259 330.264 415.259 330.264L411.265 345.304L406.565 367.773L403.524 386.692C403.524 386.692 398.97 411.799 398.242 412.884C397.515 413.969 398.242 436.907 398.242 436.907C398.242 436.907 394.721 456.442 389.745 459.852C384.769 463.263 371.585 459.906 371.585 459.906C371.585 459.906 370.808 411.465 370.96 409.139Z" fill="#2F2E41"/>
<path d="M382.422 223.688L388.395 242.064L381.025 251.025L384.271 254.436L381.877 259.258L375.635 309.801L409.857 323.056L421.381 308.299L430.468 323.056L470.066 313.174L459.968 248.722V244.508L457.117 236.372V219.148L464.646 167.877L442.173 159.838L431.428 151.152L427.95 163.367L413.146 160.678L412.76 151.5L401.432 162.431L391.894 165.21L380.473 167.877L379.017 171.593L381.927 170.85L381.455 219.186L382.422 223.688Z" fill="#2F2E41"/>
<path d="M372.193 290.923L377.941 234.101L379.458 210.716L363.371 207.745C363.371 207.745 364.008 224.466 361.901 233.901C359.821 243.21 361.625 289.675 361.753 290.918C360.572 291.997 359.739 293.417 359.365 294.99C358.991 296.563 359.093 298.215 359.658 299.727C360.223 301.239 361.224 302.541 362.529 303.459C363.834 304.378 365.382 304.87 366.967 304.871C368.552 304.871 370.099 304.381 371.405 303.464C372.711 302.546 373.714 301.246 374.28 299.734C374.847 298.222 374.95 296.57 374.578 294.997C374.205 293.424 373.374 292.003 372.193 290.923Z" fill="#A0616A"/>
<path d="M356.501 245.876L360.975 246.819L376.326 250.066L377.177 250.245L378.989 242.889L381.091 240.6L385.092 219.185L385.303 218.071L391.349 204.874L395.532 165.21L379.978 168.063C379.898 168.145 379.825 168.234 379.752 168.323C377.519 170.909 375.925 174.506 373.321 178.124C364.845 189.902 358.342 218.516 358.596 234.195C358.604 234.447 358.349 234.722 358.044 235.005C356.601 236.359 355.66 238.18 355.379 240.16C355.098 242.14 355.495 244.159 356.501 245.876Z" fill="#2F2E41"/>
<path d="M472.198 290.923L466.451 234.101L464.934 210.716L481.021 207.745C481.021 207.745 480.383 224.466 482.491 233.901C484.57 243.21 482.767 289.675 482.638 290.918C483.82 291.997 484.652 293.417 485.027 294.99C485.401 296.563 485.298 298.215 484.733 299.727C484.168 301.239 483.167 302.541 481.862 303.459C480.557 304.378 479.009 304.87 477.425 304.871C475.84 304.871 474.292 304.381 472.986 303.464C471.68 302.546 470.678 301.246 470.111 299.734C469.545 298.222 469.441 296.57 469.813 294.997C470.186 293.424 471.018 292.003 472.198 290.923Z" fill="#A0616A"/>
<path d="M487.89 245.876L483.416 246.819L468.065 250.066L467.214 250.245L465.403 242.889L463.3 240.6L459.299 219.185L459.088 218.071L453.042 204.874L454.424 165.21L464.414 168.063C464.494 168.145 464.566 168.234 464.639 168.323C466.873 170.909 468.466 174.505 471.07 178.124C479.546 189.902 486.049 218.516 485.795 234.195C485.787 234.447 486.042 234.722 486.348 235.005C487.79 236.359 488.731 238.18 489.012 240.16C489.293 242.14 488.897 244.159 487.89 245.876Z" fill="#2F2E41"/>
<path d="M405.451 171.079L412.76 151.501L431.428 151.151L437.622 171.079L459.888 298.116C459.888 298.116 391.676 317.518 392.368 294.196C393.095 269.676 396.378 237.104 396.378 237.104L405.451 171.079Z" fill="white"/>
<path d="M421.676 146.025C433.822 146.025 443.667 135.969 443.667 123.564C443.667 111.159 433.822 101.103 421.676 101.103C409.531 101.103 399.685 111.159 399.685 123.564C399.685 135.969 409.531 146.025 421.676 146.025Z" fill="#A0616A"/>
<path d="M398.389 107.27C401.969 103.29 406.447 96.0047 420.011 92.9454C436.771 89.1651 444.691 104.629 440.464 104.883C452.823 108.705 444.884 134.828 441.341 132.637C441.31 132.615 441.281 132.592 441.253 132.567C439.348 131.134 437.748 129.319 436.553 127.233C435.357 125.147 434.59 122.834 434.299 120.435L433.627 114.254C433.531 119.283 428.498 119.948 423.356 118.096C423.66 116.993 424.24 115.991 425.039 115.187C425.839 114.383 426.829 113.806 427.913 113.513C424.329 116.832 419.776 118.855 414.955 119.272C415.207 118.012 415.721 116.823 416.461 115.783C417.201 114.743 418.15 113.877 419.245 113.243L419.042 113.039C417.034 114.769 414.728 116.102 412.243 116.971C409.409 117.801 406.012 117.352 404.07 115.086C403.547 114.46 403.152 113.734 402.909 112.95C403.328 116.933 400.713 121.48 398.681 120.7C396.99 120.364 396.005 109.92 398.389 107.27Z" fill="#2F2E41"/>
<path d="M555 490.873C555 491.021 554.972 491.168 554.917 491.305C554.862 491.442 554.78 491.566 554.678 491.671C554.575 491.776 554.453 491.859 554.319 491.915C554.185 491.972 554.041 492 553.896 492H293.927C293.634 492 293.354 491.881 293.147 491.67C292.94 491.458 292.823 491.172 292.823 490.873C292.823 490.574 292.94 490.287 293.147 490.076C293.354 489.864 293.634 489.745 293.927 489.745H553.896C554.041 489.745 554.185 489.774 554.319 489.83C554.453 489.887 554.575 489.97 554.678 490.075C554.78 490.179 554.862 490.304 554.917 490.441C554.972 490.578 555 490.725 555 490.873Z" fill="#CCCCCC"/>
<path d="M285.004 257.538C276.211 257.538 268.481 261.604 264.105 267.707C268.783 264.229 274.432 262.378 280.218 262.426C293.835 262.426 304.914 272.169 304.914 284.144V294.098H309.7V279.255C309.7 267.28 298.621 257.538 285.004 257.538Z" fill="#3F3D56"/>
<path d="M312.988 299.192H255.559V281.934C255.559 268.011 268.441 256.683 284.274 256.683C300.107 256.683 312.988 268.011 312.988 281.934V299.192ZM257.414 297.298H311.133V281.934C311.133 269.055 299.084 258.577 284.274 258.577C269.463 258.577 257.414 269.055 257.414 281.934V297.298Z" fill="white"/>
<path d="M298.981 292.604H269.566C268.243 292.602 266.974 292.065 266.038 291.109C265.103 290.153 264.576 288.857 264.575 287.506V280.638C264.575 271.062 273.412 263.271 284.274 263.271C295.136 263.271 303.973 271.062 303.973 280.638V287.506C303.971 288.857 303.445 290.153 302.509 291.109C301.574 292.065 300.305 292.602 298.981 292.604ZM284.274 265.166C274.434 265.166 266.43 272.106 266.43 280.638V287.505C266.431 288.355 266.761 289.169 267.349 289.77C267.937 290.37 268.734 290.708 269.566 290.709H298.981C299.813 290.708 300.61 290.37 301.198 289.77C301.786 289.169 302.117 288.355 302.118 287.505V280.638C302.118 272.106 294.113 265.166 284.274 265.166Z" fill="white"/>
</g>
<defs>
<clipPath id="clip0_127_63">
<rect width="555" height="492" fill="white"/>
</clipPath>
</defs>
</svg>
