<svg width="566" height="391" viewBox="0 0 566 391" fill="none" xmlns="http://www.w3.org/2000/svg">
<path d="M112.772 391C175.054 391 225.543 387.193 225.543 382.496C225.543 377.799 175.054 373.992 112.772 373.992C50.4896 373.992 0 377.799 0 382.496C0 387.193 50.4896 391 112.772 391Z" fill="#E6E6E6"/>
<path d="M86.2007 86.756C105.826 78.4678 130.27 83.7192 154.143 87.3638C154.365 82.9501 157.058 77.5785 154.237 74.4993C150.81 70.7583 151.126 66.8276 153.188 62.8743C158.461 52.765 150.906 42.0081 143.278 33.064C141.559 31.0525 139.386 29.4721 136.936 28.4511C134.486 27.4301 131.828 26.9972 129.178 27.1877L115.047 28.1899C111.609 28.4337 108.327 29.7144 105.642 31.8606C102.957 34.0068 100.995 36.9161 100.021 40.1992C96.6467 44.7555 94.8408 49.2991 95.9778 53.819C90.924 57.2482 90.0749 61.3875 92.3459 66.0539C94.2716 68.992 94.2511 71.852 92.2583 74.6329C89.6412 78.1782 87.6367 82.1314 86.327 86.3304L86.2007 86.756Z" fill="#2F2E41"/>
<path d="M552.588 338.013H152.592C149.035 338.013 145.624 336.61 143.109 334.113C140.593 331.615 139.18 328.228 139.18 324.696C284.179 307.964 426.452 307.964 566 324.696C566 328.228 564.587 331.615 562.072 334.113C559.556 336.61 556.145 338.013 552.588 338.013Z" fill="#2F2E41"/>
<path d="M566 325.48L139.18 324.696L188.647 242.054L188.884 241.662V59.5264C188.884 57.3156 189.322 55.1265 190.174 53.084C191.026 51.0415 192.275 49.1857 193.849 47.6225C195.424 46.0592 197.293 44.8193 199.35 43.9733C201.407 43.1274 203.612 42.6921 205.838 42.6923H496.975C499.202 42.6921 501.406 43.1274 503.464 43.9733C505.521 44.8193 507.39 46.0592 508.964 47.6225C510.538 49.1857 511.787 51.0415 512.639 53.084C513.491 55.1265 513.93 57.3156 513.93 59.5264V242.915L566 325.48Z" fill="#3F3D56"/>
<path d="M205.452 54.4425C203.988 54.4441 202.584 55.0223 201.549 56.0503C200.513 57.0783 199.931 58.4721 199.929 59.9259V225.995C199.931 227.449 200.513 228.842 201.549 229.87C202.584 230.898 203.988 231.477 205.452 231.478H499.729C501.193 231.477 502.596 230.898 503.632 229.87C504.667 228.842 505.25 227.449 505.251 225.995V59.9259C505.25 58.4721 504.667 57.0784 503.632 56.0504C502.597 55.0224 501.193 54.4442 499.729 54.4425H205.452Z" fill="white"/>
<path d="M206.685 253.412C206.232 253.413 205.79 253.542 205.409 253.784C205.028 254.027 204.724 254.372 204.535 254.78L189.292 287.68C189.126 288.038 189.054 288.432 189.081 288.825C189.109 289.218 189.235 289.598 189.449 289.93C189.664 290.262 189.958 290.535 190.307 290.724C190.655 290.913 191.045 291.013 191.442 291.013H511.98C512.383 291.013 512.78 290.91 513.132 290.715C513.484 290.52 513.781 290.239 513.993 289.898C514.205 289.557 514.326 289.168 514.344 288.768C514.362 288.368 514.277 287.97 514.096 287.611L497.528 254.711C497.333 254.32 497.031 253.991 496.657 253.761C496.283 253.532 495.851 253.411 495.412 253.412H206.685Z" fill="#2F2E41"/>
<path d="M351.407 51.7007C353.367 51.7007 354.957 50.1225 354.957 48.1757C354.957 46.2289 353.367 44.6507 351.407 44.6507C349.446 44.6507 347.856 46.2289 347.856 48.1757C347.856 50.1225 349.446 51.7007 351.407 51.7007Z" fill="white"/>
<path d="M319.901 297.279C319.38 297.28 318.875 297.451 318.462 297.765C318.049 298.079 317.751 298.519 317.615 299.018L313.792 313.118C313.697 313.467 313.685 313.832 313.755 314.186C313.826 314.54 313.978 314.873 314.199 315.159C314.419 315.445 314.704 315.677 315.03 315.837C315.355 315.997 315.714 316.08 316.077 316.08H388.789C389.167 316.08 389.538 315.99 389.874 315.818C390.209 315.647 390.498 315.398 390.717 315.093C390.936 314.787 391.078 314.435 391.132 314.064C391.185 313.693 391.149 313.315 391.025 312.961L386.11 298.86C385.948 298.399 385.646 297.999 385.246 297.715C384.845 297.432 384.365 297.279 383.873 297.279H319.901Z" fill="#2F2E41"/>
<path d="M513.93 238.92V242.053H188.647L188.892 241.662V238.92H513.93Z" fill="#2F2E41"/>
<path d="M504.857 109.668C535.357 109.668 560.083 85.1182 560.083 54.8341C560.083 24.5501 535.357 0 504.857 0C474.356 0 449.63 24.5501 449.63 54.8341C449.63 85.1182 474.356 109.668 504.857 109.668Z" fill="white"/>
<path d="M527.736 78.7262H481.977C481.141 78.7253 480.338 78.395 479.747 77.8075C479.155 77.2201 478.822 76.4236 478.822 75.5928V48.1757C478.822 47.3449 479.155 46.5485 479.747 45.961C480.338 45.3736 481.141 45.0432 481.977 45.0423H527.736C528.573 45.0432 529.375 45.3736 529.967 45.961C530.558 46.5485 530.891 47.3449 530.892 48.1757V75.5928C530.891 76.4235 530.558 77.2201 529.967 77.8075C529.375 78.395 528.573 78.7253 527.736 78.7262ZM481.977 48.1757V75.5928H527.738L527.736 48.1757L481.977 48.1757Z" fill="white"/>
<path d="M519.058 48.1757H490.656V35.6422C490.656 26.5641 496.628 19.9753 504.857 19.9753C513.085 19.9753 519.058 26.5641 519.058 35.6422L519.058 48.1757ZM493.811 45.0423H515.902V35.6422C515.902 28.2627 511.36 23.1087 504.857 23.1087C498.353 23.1087 493.811 28.2628 493.811 35.6422L493.811 45.0423Z" fill="white"/>
<path d="M504.857 64.2343C506.6 64.2343 508.012 62.8314 508.012 61.1009C508.012 59.3704 506.6 57.9675 504.857 57.9675C503.114 57.9675 501.701 59.3704 501.701 61.1009C501.701 62.8314 503.114 64.2343 504.857 64.2343Z" fill="white"/>
<path d="M466.304 175.149H238.876C237.76 175.148 236.689 174.707 235.9 173.923C235.11 173.139 234.666 172.076 234.665 170.968V114.953C234.666 113.844 235.11 112.782 235.9 111.998C236.689 111.214 237.76 110.773 238.876 110.771H466.304C467.421 110.773 468.491 111.214 469.281 111.998C470.07 112.782 470.514 113.844 470.516 114.953V170.968C470.514 172.076 470.07 173.139 469.281 173.923C468.491 174.707 467.421 175.148 466.304 175.149ZM238.876 112.444C238.206 112.445 237.564 112.709 237.09 113.18C236.617 113.65 236.35 114.288 236.349 114.953V170.968C236.35 171.633 236.617 172.271 237.09 172.741C237.564 173.211 238.206 173.476 238.876 173.477H466.304C466.974 173.476 467.616 173.211 468.09 172.741C468.564 172.271 468.83 171.633 468.831 170.968V114.953C468.83 114.288 468.564 113.65 468.09 113.18C467.616 112.709 466.974 112.445 466.304 112.444L238.876 112.444Z" fill="#E6E6E6"/>
<path d="M274.214 157.845C283.689 157.845 291.37 150.219 291.37 140.811C291.37 131.403 283.689 123.777 274.214 123.777C264.739 123.777 257.058 131.403 257.058 140.811C257.058 150.219 264.739 157.845 274.214 157.845Z" fill="#E6E6E6"/>
<path d="M313.836 129.455C313.46 129.454 313.088 129.527 312.74 129.67C312.393 129.812 312.077 130.021 311.811 130.285C311.545 130.549 311.334 130.862 311.19 131.207C311.046 131.551 310.972 131.921 310.972 132.294C310.972 132.667 311.046 133.037 311.19 133.382C311.334 133.726 311.545 134.039 311.811 134.303C312.077 134.567 312.393 134.776 312.74 134.918C313.088 135.061 313.46 135.134 313.836 135.133H448.632C449.391 135.133 450.118 134.834 450.654 134.302C451.19 133.769 451.492 133.047 451.492 132.294C451.492 131.541 451.19 130.819 450.654 130.287C450.118 129.754 449.391 129.455 448.632 129.455H313.836Z" fill="#E6E6E6"/>
<path d="M313.836 146.489C313.078 146.489 312.35 146.788 311.814 147.321C311.278 147.853 310.977 148.575 310.977 149.328C310.977 150.081 311.278 150.803 311.814 151.336C312.35 151.868 313.078 152.167 313.836 152.167H371.839C372.598 152.167 373.325 151.868 373.861 151.336C374.397 150.803 374.699 150.081 374.699 149.328C374.699 148.575 374.397 147.853 373.861 147.321C373.325 146.788 372.598 146.489 371.839 146.489H313.836Z" fill="#E6E6E6"/>
<path d="M188.088 147.638L146.046 169.83L145.514 151.336C159.236 149.062 172.291 145.102 184.362 138.655L188.759 127.869C189.238 126.693 190.017 125.662 191.019 124.876C192.021 124.09 193.211 123.575 194.474 123.384C195.736 123.193 197.027 123.33 198.22 123.784C199.412 124.238 200.465 124.991 201.276 125.971C202.462 127.405 203.055 129.232 202.934 131.083C202.814 132.935 201.989 134.671 200.627 135.941L188.088 147.638Z" fill="#FFB8B8"/>
<path d="M85.3626 275.77C85.0559 274.653 84.9908 273.484 85.1715 272.341C85.3523 271.197 85.7748 270.104 86.4113 269.134L95.6467 255.062C97.8311 251.733 101.183 249.329 105.052 248.315C108.92 247.302 113.031 247.752 116.584 249.577C112.703 256.137 113.244 261.892 117.925 266.893C110.659 270.415 103.943 274.961 97.9856 280.389C96.8981 281.125 95.6491 281.593 94.3428 281.753C93.0365 281.913 91.7106 281.76 90.4756 281.308C89.2406 280.856 88.1323 280.118 87.2429 279.155C86.3535 278.191 85.7088 277.031 85.3626 275.77Z" fill="#2F2E41"/>
<path d="M190.002 257.37C188.605 259.682 186.632 261.599 184.274 262.937C181.915 264.275 179.25 264.988 176.533 265.008L115.18 265.47L112.519 250.146L139.66 242.22L116.776 224.783L141.788 195.722L187.218 237.763C189.873 240.221 191.599 243.509 192.105 247.077C192.612 250.646 191.87 254.279 190.002 257.37Z" fill="#2F2E41"/>
<path d="M105.6 362.166H91.2318C78.3307 274.363 65.1987 186.314 104.004 153.45L149.771 160.848L143.917 199.42L118.373 228.482L105.6 362.166Z" fill="#2F2E41"/>
<path d="M118.231 382.057C117.106 382.361 115.929 382.426 114.778 382.247C113.626 382.067 112.525 381.648 111.548 381.016L95.9469 378.934C92.5944 376.765 90.1728 373.437 89.1519 369.596C88.131 365.754 88.5835 361.674 90.4218 358.145C97.0288 361.998 102.825 361.461 107.861 356.813C111.42 363.947 117.283 363.512 122.883 369.523C123.624 370.603 124.095 371.843 124.256 373.14C124.417 374.437 124.264 375.753 123.809 376.98C123.354 378.206 122.61 379.306 121.64 380.19C120.67 381.073 119.501 381.713 118.231 382.057Z" fill="#2F2E41"/>
<path d="M139.66 94.798L113.051 88.4572C117.47 79.4755 117.834 69.4815 115.712 58.867L133.806 58.3386C134.373 71.538 136.088 83.8696 139.66 94.798Z" fill="#FFB8B8"/>
<path d="M146.973 176.757C127.603 189.863 113.916 177.206 103.472 157.677C104.923 145.727 102.573 131.427 98.221 115.889C96.2854 109.035 97.0081 101.711 100.246 95.3602C103.484 89.0099 109.003 84.0958 115.712 81.5881L138.595 91.0992C158.026 106.825 161.851 123.859 154.561 141.825L146.973 176.757Z" fill="white"/>
<path d="M91.2318 108.008L69.9448 119.104L107.729 141.297L112.987 154.173C113.338 155.033 113.509 155.954 113.489 156.881C113.47 157.808 113.26 158.722 112.874 159.566C112.487 160.41 111.931 161.167 111.24 161.791C110.549 162.415 109.738 162.893 108.855 163.195C107.851 163.539 106.781 163.647 105.728 163.512C104.675 163.376 103.668 163 102.786 162.414C101.903 161.827 101.17 161.046 100.643 160.131C100.115 159.216 99.8085 158.192 99.7461 157.14L99.2144 148.166L51.1909 132.431C49.5729 131.901 48.0976 131.012 46.8768 129.832C45.6559 128.652 44.7215 127.211 44.1444 125.619C43.3031 123.299 43.2603 120.767 44.0226 118.42C44.7849 116.074 46.3094 114.044 48.3574 112.649L86.9744 86.3437L91.2318 108.008Z" fill="#FFB8B8"/>
<path d="M112.519 110.121C103.641 106.258 95.5678 110.455 85.3779 113.82L83.7814 85.8152C93.8995 80.4607 103.546 79.017 112.519 83.1733L112.519 110.121Z" fill="white"/>
<path d="M123.139 72.2105C132.521 72.2105 140.128 64.6584 140.128 55.3424C140.128 46.0265 132.521 38.4744 123.139 38.4744C113.756 38.4744 106.15 46.0265 106.15 55.3424C106.15 64.6584 113.756 72.2105 123.139 72.2105Z" fill="#FFB8B8"/>
<path d="M143.463 53.2141C126.643 54.8498 113.826 52.1185 105.634 44.3414V38.0783H142.035L143.463 53.2141Z" fill="#2F2E41"/>
<rect x="472" y="51.0112" width="65" height="32.1788" fill="#E6E6E6"/>
<ellipse cx="503.761" cy="68.1386" rx="7.38636" ry="5.19013" fill="#3F3D56"/>
<rect x="499.33" y="68.1386" width="8.86364" height="10.8993" fill="#3F3D56"/>
<path d="M480.125 63.727C480.125 63.727 480.125 64.765 480.125 42.4475C480.125 20.13 527.767 20.9085 527.767 42.4475C527.767 63.9865 527.767 63.727 527.767 63.727" stroke="#E6E6E6" stroke-width="5"/>
</svg>
