<svg width="644" height="378" viewBox="0 0 644 378" fill="none" xmlns="http://www.w3.org/2000/svg">
<path d="M222.211 150.615C222.19 139.757 224.946 128.739 231.18 119.657C234.136 115.288 237.956 111.542 242.417 108.64C246.877 105.737 251.886 103.738 257.15 102.759C262.346 101.808 267.702 102.112 272.751 103.644C277.324 105.109 281.437 107.695 284.699 111.154C290.945 117.682 294.798 128.101 291.175 136.794C290.328 138.823 289.064 140.659 287.462 142.191C285.859 143.722 283.952 144.916 281.858 145.697C278.13 146.957 273.536 145.982 271.933 142.085C270.558 138.744 271.993 134.727 274.287 132.117C275.619 130.564 277.393 129.434 279.384 128.872C281.375 128.31 283.493 128.341 285.466 128.961C290.373 130.319 294.243 134.227 296.56 138.545C299.253 143.564 299.816 149.498 299.25 155.066C298.002 167.337 291.512 178.259 286.734 189.43C282.293 199.813 278.6 211.826 282.018 223.017C283.427 227.47 285.982 231.496 289.438 234.707C292.895 237.917 297.138 240.206 301.759 241.354C310.575 243.665 320.888 242.021 327.149 235.125C330.102 231.873 332.257 227.643 332.287 223.224C332.327 221.158 331.804 219.119 330.77 217.316C329.737 215.514 328.231 214.013 326.408 212.968C318.779 208.795 308.477 213.085 305.281 220.718C303.325 225.389 303.695 230.759 305.541 235.405C307.515 240.193 310.846 244.331 315.142 247.334C319.604 250.575 324.816 252.729 330.082 254.377C335.561 256.125 341.206 257.323 346.933 257.954C357.855 259.092 369.253 257.311 377.813 250.156C385.343 243.862 389.488 234.545 391.596 225.266C394.043 214.5 393.676 203.504 393.698 192.549C393.722 180.875 394.024 168.132 399.777 157.579C404.3 149.281 412.295 142.017 421.838 139.846C426.243 138.824 430.866 139.196 435.041 140.908C436.422 141.474 437.025 139.27 435.66 138.711C426.49 134.95 416.399 137.901 408.828 143.625C404.836 146.654 401.447 150.374 398.829 154.601C396.011 159.361 394.072 164.569 393.099 169.987C388.684 192 395.511 215.767 385.226 236.689C383.204 240.944 380.355 244.774 376.839 247.966C372.794 251.481 367.89 253.917 362.602 255.04C351.44 257.515 339.331 255.167 328.708 251.528C318.526 248.04 308.348 241.496 306.525 230.296C305.774 225.68 306.839 220.519 310.442 217.244C311.963 215.884 313.772 214.871 315.741 214.276C317.71 213.682 319.789 213.522 321.829 213.807C323.825 214.089 325.676 214.986 327.115 216.367C328.554 217.747 329.506 219.541 329.832 221.486C330.558 225.823 328.39 230.336 325.502 233.514C319.158 240.491 308.556 241.469 299.951 238.408C295.701 236.91 291.917 234.37 288.96 231.031C285.536 226.936 283.505 221.897 283.151 216.618C282.144 204.673 287.428 193.183 292.392 182.59C297.449 171.799 302.882 159.948 301.599 147.777C301.154 142.39 299.057 137.259 295.582 133.056C292.395 129.331 287.869 126.533 282.826 126.225C280.781 126.111 278.739 126.493 276.881 127.337C275.023 128.181 273.408 129.46 272.177 131.061C269.792 134.041 268.4 138.109 269.413 141.866C269.979 143.781 271.161 145.466 272.784 146.671C274.407 147.876 276.385 148.537 278.423 148.555C282.881 148.632 287.125 146.019 289.981 142.841C296.436 135.658 295.81 125.025 291.624 116.899C289.407 112.566 286.17 108.809 282.18 105.935C278.19 103.062 273.561 101.154 268.671 100.368C258.279 98.7916 247.459 101.926 239.134 108.092C230.266 114.66 224.51 124.51 221.809 134.955C220.503 140.077 219.855 145.337 219.881 150.615C219.891 150.91 220.018 151.19 220.236 151.395C220.453 151.601 220.744 151.715 221.046 151.715C221.348 151.715 221.638 151.601 221.856 151.395C222.073 151.19 222.201 150.91 222.211 150.615H222.211Z" fill="white"/>
<path d="M528.649 87.3C530.661 81.0291 535.238 75.2776 541.568 73.1576C547.897 71.0377 557.166 74.267 561.924 78.9037C570.629 87.3852 570.896 97.768 564.916 106.976C563.727 106.914 559.622 106.869 558.418 106.824L556.715 101.275V106.77C547.318 106.486 537.536 106.664 527.747 106.847C526.87 100.328 526.636 93.5709 528.649 87.3Z" fill="#2F2E41"/>
<path d="M486.788 186.741C486.42 185.974 486.228 185.137 486.226 184.289C486.225 183.442 486.414 182.604 486.779 181.835C487.144 181.067 487.678 180.386 488.341 179.841C489.005 179.295 489.783 178.899 490.62 178.68L515.912 132.022L526.121 139.726L498.05 183.166C498.334 184.566 498.083 186.019 497.344 187.249C496.606 188.48 495.431 189.403 494.043 189.844C492.655 190.285 491.149 190.212 489.812 189.64C488.475 189.068 487.399 188.037 486.788 186.741Z" fill="#FFB6B6"/>
<path d="M520.021 335.239H511.45L507.372 302.917L520.023 302.917L520.021 335.239Z" fill="#FFB6B6"/>
<path d="M572.844 335.239H564.273L560.195 302.917L572.845 302.917L572.844 335.239Z" fill="#FFB6B6"/>
<path d="M554.385 151.401L556.327 156.338L555.938 161.274L518.651 156.717L519.817 152.54L524.089 147.604L554.385 151.401Z" fill="#FFB6B6"/>
<path d="M542.368 106.976C549.865 106.976 555.942 101.034 555.942 93.7039C555.942 86.374 549.865 80.4319 542.368 80.4319C534.87 80.4319 528.793 86.374 528.793 93.7039C528.793 101.034 534.87 106.976 542.368 106.976Z" fill="#FFB7B7"/>
<path d="M527.974 116.464L535.742 111.908L551.278 110.389L565.009 113.427L564.872 138.11L556.16 159.771L519.651 155.214L518.263 147.574C518.263 147.574 508.165 134.312 519.04 126.718L527.974 116.464Z" fill="white"/>
<path d="M556.327 159.375V167.81C556.327 167.81 566.425 180.641 560.988 190.514L576.568 321.91H560.255L533.023 211.02L521.415 319.631H507.432L505.102 198.873C505.102 198.873 506.611 167.73 515.156 162.413L519.085 155.583L556.327 159.375Z" fill="#2F2E41"/>
<path d="M533.04 76.4214C535.648 74.8667 538.636 74.0257 541.691 73.9864C544.745 73.947 547.754 74.7107 550.404 76.1976C553.053 77.6845 555.245 79.84 556.751 82.4387C558.256 85.0374 559.02 87.9838 558.963 90.97C551.375 91.3112 543.404 91.4 535.321 91.4153L533.411 86.8446L532.285 91.4187C529.822 91.4185 527.355 91.4153 524.882 91.4092C524.782 88.4315 525.482 85.48 526.914 82.8499C528.345 80.2198 530.458 78.0031 533.04 76.4214Z" fill="#2F2E41"/>
<path d="M444.064 146.941L437.996 144.611C437.597 144.458 437.232 144.23 436.923 143.94C436.614 143.65 436.367 143.303 436.195 142.919C436.024 142.535 435.931 142.121 435.923 141.703C435.915 141.284 435.992 140.867 436.148 140.477C436.305 140.087 436.539 139.731 436.836 139.43C437.134 139.128 437.489 138.887 437.882 138.72C438.275 138.553 438.698 138.463 439.126 138.456C439.555 138.449 439.981 138.524 440.379 138.678L446.447 141.008C447.25 141.318 447.895 141.927 448.239 142.701C448.583 143.476 448.6 144.352 448.284 145.137C447.968 145.923 447.347 146.554 446.555 146.893C445.764 147.231 444.868 147.248 444.064 146.941Z" fill="white"/>
<path d="M579.178 186.272L459.271 140.226C458.508 139.934 457.684 139.825 456.869 139.91C456.054 139.994 455.271 140.268 454.588 140.71L449.789 138.868C449.241 138.657 448.656 138.554 448.067 138.565C447.479 138.576 446.898 138.699 446.358 138.93C445.819 139.16 445.331 139.491 444.922 139.906C444.514 140.32 444.193 140.809 443.977 141.345L442.489 145.051C442.273 145.587 442.168 146.158 442.179 146.734C442.19 147.309 442.317 147.877 442.552 148.405C442.787 148.932 443.126 149.41 443.55 149.809C443.974 150.208 444.474 150.522 445.022 150.733L449.013 152.265C448.742 153.43 448.906 154.651 449.476 155.707C450.047 156.764 450.985 157.586 452.121 158.024L572.028 204.069C573.293 204.555 574.703 204.53 575.949 203.999C577.195 203.468 578.174 202.475 578.671 201.238L582.074 192.767C582.571 191.53 582.545 190.151 582.002 188.933C581.458 187.715 580.443 186.758 579.178 186.272Z" fill="#3F3D56"/>
<path d="M607.538 221.13L562.459 203.819L571.992 180.089L617.071 197.4C619.061 198.167 620.658 199.674 621.513 201.591C622.368 203.508 622.41 205.678 621.63 207.626L617.996 216.671C617.212 218.617 615.671 220.179 613.71 221.015C611.749 221.85 609.529 221.892 607.538 221.13Z" fill="#2F2E41"/>
<path d="M614.65 215.872L592.688 207.438C591.578 207.01 590.687 206.17 590.21 205.1C589.733 204.031 589.71 202.82 590.145 201.734L590.826 200.038C591.263 198.953 592.123 198.081 593.217 197.615C594.311 197.148 595.549 197.125 596.66 197.551L618.622 205.984C619.732 206.412 620.624 207.253 621.101 208.322C621.577 209.392 621.601 210.603 621.165 211.689L620.484 213.384C620.047 214.47 619.187 215.341 618.093 215.808C617 216.274 615.761 216.297 614.65 215.872Z" fill="white"/>
<path d="M543.414 176.815C543.727 176.884 544.034 176.977 544.333 177.093L568.031 161.145L567.489 154.332L577.898 152.188L580.057 164.157C580.231 165.124 580.08 166.12 579.626 166.996C579.172 167.872 578.44 168.58 577.539 169.015L548.184 183.169C548.072 184.373 547.589 185.516 546.797 186.444C546.006 187.373 544.943 188.044 543.752 188.369C542.561 188.693 541.297 188.655 540.128 188.26C538.96 187.864 537.942 187.131 537.21 186.156C536.478 185.181 536.067 184.012 536.032 182.803C535.997 181.595 536.338 180.404 537.012 179.39C537.685 178.376 538.659 177.587 539.802 177.127C540.946 176.667 542.206 176.558 543.414 176.815Z" fill="#FFB6B6"/>
<path d="M565.693 161.659L578.899 169.253C582.006 167.734 581.405 157.884 579.508 157.307L578.077 124.439C577.301 109.249 565.009 113.427 565.009 113.427L559.434 114.566L563.318 130.515L567.537 158.034C566.964 158.458 566.499 159.006 566.179 159.634C565.859 160.263 565.693 160.956 565.693 161.659Z" fill="white"/>
<path d="M528.275 116.257C528.275 116.257 517.611 116.421 514.278 122.033C511.61 126.525 506.623 144.445 504.739 151.418C503.705 151.39 502.691 151.698 501.857 152.295C501.023 152.892 500.415 153.744 500.13 154.715L514.424 160.14C517.531 158.621 516.669 156.515 515.881 155.426L521.204 147.619L527.419 144.581L529.996 117.696L528.275 116.257Z" fill="white"/>
<path d="M523.855 351.15H517.773L516.687 345.536L513.907 351.15H497.777C497.004 351.15 496.251 350.908 495.628 350.46C495.005 350.012 494.545 349.382 494.315 348.66C494.085 347.938 494.097 347.163 494.349 346.449C494.601 345.734 495.08 345.117 495.717 344.688L508.598 335.99V330.315L522.146 331.105L523.855 351.15Z" fill="#2F2E41"/>
<path d="M577.454 351.15H571.373L570.287 345.536L567.507 351.15H551.377C550.603 351.15 549.85 350.908 549.228 350.46C548.605 350.012 548.145 349.382 547.915 348.66C547.685 347.938 547.697 347.163 547.949 346.449C548.201 345.734 548.68 345.117 549.316 344.688L562.197 335.99V330.315L575.746 331.105L577.454 351.15Z" fill="#2F2E41"/>
<path d="M605.195 352.199H379.592C379.435 352.199 379.284 352.135 379.173 352.023C379.062 351.911 379 351.758 379 351.599C379 351.44 379.062 351.288 379.173 351.176C379.284 351.063 379.435 351 379.592 351H605.195C605.353 351 605.503 351.063 605.614 351.176C605.725 351.288 605.788 351.44 605.788 351.599C605.788 351.758 605.725 351.911 605.614 352.023C605.503 352.135 605.353 352.199 605.195 352.199Z" fill="#CACACA"/>
</svg>
