<svg width="530" height="391" viewBox="0 0 530 391" fill="none" xmlns="http://www.w3.org/2000/svg">
<path d="M482.439 356.942C472.279 367.163 460.637 375.989 447.857 383.158C447.563 383.327 447.265 383.486 446.966 383.651L426.276 366.444C426.493 366.254 426.734 366.041 426.993 365.807C442.41 352.052 518.943 255.879 524.043 232.459C523.691 234.41 528.645 310.925 482.439 356.942Z" fill="#F0F0F0"/>
<path d="M451.849 386.478C451.458 386.566 451.059 386.648 450.66 386.723L435.138 373.814C435.441 373.714 435.796 373.596 436.201 373.465C442.861 371.249 462.697 364.56 482.437 356.941C503.648 348.75 524.757 339.496 529.297 333.569C528.323 334.946 498.325 376.713 451.849 386.478Z" fill="#F0F0F0"/>
<path d="M482.152 102.402H479.941V45.5008C479.941 41.176 479.035 36.8936 477.273 32.898C475.512 28.9024 472.93 25.2719 469.676 22.2138C466.421 19.1558 462.558 16.7299 458.305 15.0749C454.053 13.4199 449.496 12.5681 444.893 12.5681H316.597C311.994 12.568 307.437 13.4199 303.185 15.0749C298.932 16.7299 295.069 19.1557 291.814 22.2138C288.56 25.2719 285.978 28.9023 284.217 32.8979C282.455 36.8935 281.549 41.1759 281.549 45.5007V357.664C281.549 361.989 282.455 366.271 284.217 370.267C285.978 374.262 288.56 377.893 291.814 380.951C295.069 384.009 298.932 386.435 303.185 388.09C307.437 389.745 311.994 390.597 316.597 390.597H444.893C449.495 390.597 454.053 389.745 458.305 388.09C462.558 386.435 466.421 384.009 469.676 380.951C472.93 377.893 475.512 374.263 477.273 370.267C479.035 366.271 479.941 361.989 479.941 357.664V142.905H482.152V102.402Z" fill="#3F3D56"/>
<path d="M472.48 45.7271V357.436C472.48 360.666 471.803 363.864 470.488 366.848C469.172 369.832 467.244 372.543 464.813 374.826C462.382 377.109 459.496 378.92 456.32 380.156C453.144 381.391 449.74 382.026 446.303 382.025H317.389C313.953 382.025 310.55 381.389 307.375 380.154C304.2 378.918 301.315 377.107 298.885 374.823C296.455 372.54 294.527 369.829 293.212 366.846C291.897 363.863 291.221 360.665 291.221 357.436V45.7271C291.221 42.4979 291.897 39.3004 293.212 36.3171C294.527 33.3337 296.455 30.623 298.885 28.3396C301.315 26.0563 304.2 24.2451 307.375 23.0095C310.55 21.7739 313.953 21.1381 317.389 21.1383H333.034C332.266 22.9126 331.973 24.837 332.183 26.7422C332.392 28.6475 333.096 30.4752 334.234 32.0647C335.371 33.6542 336.907 34.9567 338.705 35.8578C340.504 36.7588 342.511 37.2307 344.549 37.232H418.047C420.086 37.2338 422.095 36.7639 423.896 35.8637C425.696 34.9635 427.234 33.6608 428.372 32.0704C429.51 30.4799 430.214 28.6508 430.421 26.7443C430.629 24.8377 430.334 22.9125 429.563 21.1383H446.303C449.74 21.1371 453.144 21.7723 456.32 23.0075C459.496 24.2426 462.382 26.0536 464.813 28.337C467.244 30.6204 469.172 33.3315 470.488 36.3153C471.803 39.2991 472.48 42.4973 472.48 45.7271Z" fill="white"/>
<path d="M432.38 207.708H319.069C317.084 207.706 315.181 206.964 313.778 205.645C312.375 204.326 311.585 202.539 311.583 200.674V197.172C311.585 195.308 312.375 193.52 313.778 192.201C315.181 190.882 317.084 190.14 319.069 190.138H432.38C434.365 190.14 436.268 190.882 437.671 192.201C439.074 193.52 439.864 195.308 439.866 197.172V200.674C439.864 202.539 439.074 204.326 437.671 205.645C436.268 206.964 434.365 207.706 432.38 207.708Z" fill="#F0F0F0"/>
<path d="M432.38 237.889H319.069C317.084 237.887 315.181 237.145 313.778 235.826C312.375 234.508 311.585 232.72 311.583 230.855V227.354C311.585 225.489 312.375 223.701 313.778 222.382C315.181 221.063 317.084 220.322 319.069 220.32H432.38C434.365 220.322 436.268 221.063 437.671 222.382C439.074 223.701 439.864 225.489 439.866 227.354V230.855C439.864 232.72 439.074 234.508 437.671 235.826C436.268 237.145 434.365 237.887 432.38 237.889Z" fill="#F0F0F0"/>
<path d="M438.048 200.958H324.737C322.653 200.955 320.655 200.177 319.182 198.792C317.708 197.407 316.879 195.53 316.877 193.572V190.071C316.879 188.113 317.708 186.235 319.182 184.851C320.655 183.466 322.653 182.687 324.737 182.685H438.048C440.132 182.687 442.13 183.466 443.604 184.851C445.077 186.235 445.906 188.113 445.909 190.071V193.572C445.906 195.53 445.077 197.407 443.604 198.792C442.13 200.177 440.132 200.955 438.048 200.958ZM324.737 184.092C323.05 184.094 321.433 184.724 320.24 185.845C319.047 186.966 318.376 188.486 318.374 190.071V193.572C318.376 195.157 319.047 196.677 320.24 197.798C321.433 198.919 323.05 199.549 324.737 199.551H438.048C439.735 199.549 441.353 198.919 442.546 197.798C443.739 196.677 444.41 195.157 444.411 193.572V190.071C444.41 188.486 443.739 186.966 442.546 185.845C441.353 184.724 439.735 184.094 438.048 184.092H324.737Z" fill="#3F3D56"/>
<path d="M438.048 231.139H324.737C322.653 231.137 320.655 230.358 319.182 228.973C317.708 227.589 316.879 225.711 316.877 223.753V220.252C316.879 218.294 317.708 216.416 319.182 215.032C320.655 213.647 322.653 212.868 324.737 212.866H438.048C440.132 212.868 442.13 213.647 443.604 215.032C445.077 216.416 445.906 218.294 445.909 220.252V223.753C445.906 225.711 445.077 227.589 443.604 228.973C442.13 230.358 440.132 231.137 438.048 231.139ZM324.737 214.273C323.05 214.275 321.433 214.905 320.24 216.026C319.047 217.147 318.376 218.667 318.374 220.252V223.753C318.376 225.338 319.047 226.858 320.24 227.979C321.433 229.1 323.05 229.73 324.737 229.732H438.048C439.735 229.73 441.353 229.1 442.546 227.979C443.739 226.858 444.41 225.338 444.411 223.753V220.252C444.41 218.667 443.739 217.147 442.546 216.026C441.353 214.905 439.735 214.275 438.048 214.273H324.737Z" fill="#3F3D56"/>
<path d="M472.481 45.7271V113.528C461.015 116.362 449.011 116.688 437.391 114.479C425.771 112.27 414.845 107.585 405.454 100.786C396.063 93.9871 388.456 85.2542 383.221 75.2596C377.985 65.265 375.259 54.2749 375.252 43.1351C375.252 41.1467 375.337 39.179 375.507 37.232H418.047C420.086 37.2338 422.095 36.7639 423.896 35.8637C425.696 34.9635 427.234 33.6608 428.372 32.0704C429.51 30.4799 430.214 28.6508 430.421 26.7443C430.629 24.8377 430.334 22.9125 429.563 21.1383H446.303C449.74 21.1371 453.144 21.7723 456.32 23.0075C459.496 24.2426 462.382 26.0536 464.813 28.337C467.244 30.6204 469.172 33.3315 470.488 36.3153C471.803 39.2991 472.481 42.4973 472.481 45.7271Z" fill="#F0F0F0"/>
<path d="M356.358 377.79C356.358 379.22 356.301 380.631 356.179 382.025H317.389C313.953 382.025 310.55 381.389 307.375 380.154C304.2 378.918 301.315 377.107 298.885 374.823C296.455 372.54 294.527 369.829 293.212 366.846C291.897 363.863 291.221 360.665 291.221 357.436V324.095C299.352 323.101 307.615 323.747 315.459 325.99C323.303 328.233 330.548 332.021 336.712 337.102C342.875 342.183 347.815 348.44 351.203 355.456C354.591 362.472 356.348 370.086 356.358 377.79H356.358Z" fill="white"/>
<path d="M43.5089 319.289C44.5989 319.739 45.8344 319.765 46.9446 319.361C48.0548 318.956 48.949 318.155 49.431 317.131L84.3745 242.715C85.1743 241.013 85.4187 239.125 85.0768 237.291C84.7348 235.458 83.8219 233.761 82.4535 232.415C81.0851 231.069 79.3227 230.135 77.3891 229.73C75.4555 229.325 73.4376 229.468 71.5906 230.141H71.5905C69.4567 230.907 67.6711 232.344 66.5375 234.207C66.3572 234.502 66.1936 234.806 66.0476 235.117L31.104 309.533C30.8659 310.04 30.7363 310.586 30.7229 311.14C30.7094 311.694 30.8122 312.246 31.0254 312.762C31.2386 313.279 31.5581 313.751 31.9656 314.152C32.3731 314.553 32.8605 314.874 33.4002 315.098L43.5089 319.289Z" fill="white"/>
<path d="M82.9399 273.267L48.3763 266.049L56.9312 244.784C58.3886 239.586 61.7802 235.051 66.4909 232.002C71.2016 228.953 76.9193 227.591 82.607 228.164L82.94 228.198L82.9399 273.267Z" fill="#2F2E41"/>
<path d="M152.753 320.353C151.736 320.352 150.742 320.073 149.89 319.552C149.038 319.03 148.366 318.288 147.953 317.415L113.01 242.999C111.898 240.631 111.795 237.954 112.721 235.516C113.647 233.079 115.532 231.068 117.988 229.897C120.443 228.726 123.283 228.484 125.924 229.22C128.564 229.957 130.803 231.616 132.181 233.857V233.857C132.374 234.173 132.55 234.499 132.707 234.833L167.65 309.249C168.211 310.444 168.244 311.799 167.742 313.017C167.239 314.234 166.243 315.214 164.971 315.742L154.52 320.074L154.515 320.063C153.95 320.255 153.354 320.353 152.753 320.353Z" fill="white"/>
<path d="M104.417 294.799C103.226 294.8 102.085 295.245 101.243 296.037C100.4 296.828 99.9269 297.901 99.9255 299.02V385.548C99.9269 386.667 100.4 387.74 101.243 388.531C102.085 389.322 103.226 389.767 104.417 389.769H115.466C116.657 389.767 117.798 389.322 118.64 388.531C119.482 387.74 119.956 386.667 119.957 385.548V299.02C119.956 297.901 119.482 296.828 118.64 296.037C117.798 295.245 116.657 294.8 115.466 294.799H104.417Z" fill="white"/>
<path d="M82.564 294.799C81.3732 294.8 80.2315 295.245 79.3895 296.037C78.5475 296.828 78.0738 297.901 78.0725 299.02V385.548C78.0738 386.667 78.5475 387.74 79.3895 388.531C80.2315 389.322 81.3732 389.767 82.564 389.769H93.613C94.8038 389.767 95.9455 389.322 96.7875 388.531C97.6296 387.74 98.1032 386.667 98.1045 385.548V299.02C98.1032 297.901 97.6296 296.828 96.7875 296.037C95.9455 295.245 94.8038 294.8 93.613 294.799H82.564Z" fill="white"/>
<path d="M98.6849 204.145C119.77 204.145 136.863 188.084 136.863 168.271C136.863 148.459 119.77 132.398 98.6849 132.398C77.5998 132.398 60.507 148.459 60.507 168.271C60.507 188.084 77.5998 204.145 98.6849 204.145Z" fill="white"/>
<path d="M132.741 160.77H124.677V162.177H132.741V160.77Z" fill="#2F2E41"/>
<path d="M107.289 160.77H99.2251V162.177H107.289V160.77Z" fill="#2F2E41"/>
<path d="M129 179H119L124 184L129 179Z" fill="#2F2E41"/>
<path d="M136.514 320.79L122.773 226.534C122.625 225.523 122.093 224.597 121.275 223.926C120.457 223.256 119.408 222.886 118.322 222.886H107.95C107.994 222.654 108.016 222.419 108.018 222.183V218.666C108.018 217.546 107.544 216.473 106.702 215.681C105.86 214.89 104.717 214.445 103.526 214.445H94.5431C93.3519 214.445 92.2094 214.89 91.3671 215.681C90.5248 216.473 90.0516 217.546 90.0516 218.666V222.183C90.0531 222.419 90.0756 222.654 90.1188 222.886H79.7468C78.6611 222.886 77.6122 223.256 76.7941 223.926C75.976 224.597 75.444 225.523 75.2966 226.534L61.5555 320.79C61.4684 321.387 61.5185 321.995 61.7022 322.572C61.886 323.149 62.1992 323.683 62.6207 324.137C63.0423 324.591 63.5625 324.955 64.1463 325.205C64.7301 325.454 65.364 325.583 66.0053 325.583H132.064C132.705 325.583 133.339 325.454 133.923 325.205C134.507 324.955 135.027 324.591 135.448 324.137C135.87 323.683 136.183 323.149 136.367 322.572C136.551 321.995 136.601 321.387 136.514 320.79Z" fill="#2F2E41"/>
<path d="M115.129 273.267V228.199L115.462 228.164C121.157 227.592 126.881 228.958 131.595 232.015C136.308 235.071 139.699 239.615 141.15 244.821L149.693 266.049L115.129 273.267Z" fill="#2F2E41"/>
<path d="M96.7624 205.265L70.3556 195.634C66.0376 194.059 61.6954 192.532 57.4002 190.903C55.5603 190.3 53.8655 189.362 52.4134 188.141C51.1492 186.883 50.2876 185.317 49.9273 183.62C49.0114 179.983 49.177 176.006 49.2423 172.294C49.293 168.233 49.6487 164.18 50.3066 160.167C51.4598 152.624 54.1679 145.365 58.2793 138.797C65.6849 127.379 78.4441 118.789 93.1207 119.475C99.9154 119.792 106.749 122.083 111.798 126.448C112.324 127.04 112.915 127.578 113.56 128.054C114.009 128.212 114.497 128.243 114.965 128.143C115.581 128.105 116.197 128.077 116.814 128.057C118.955 127.972 121.1 128.057 123.226 128.31C127.101 128.703 130.773 130.136 133.804 132.437C136.327 134.476 138.38 137.355 138.591 140.554C138.693 142.023 138.434 143.494 137.836 144.854C137.237 146.214 136.313 147.426 135.137 148.398C131.986 150.893 127.491 150.016 123.712 149.828L109.868 149.138L102.854 148.789C101.409 148.717 101.414 150.828 102.854 150.899L121.497 151.828C124.493 151.977 127.581 152.342 130.579 152.173C132.883 152.075 135.083 151.244 136.817 149.815C138.401 148.448 139.581 146.719 140.242 144.795C140.903 142.872 141.022 140.821 140.588 138.841C139.627 134.524 136.207 130.953 132.199 128.828C126.744 125.937 120.23 125.66 114.127 126.088L114.921 126.397C108.018 119.434 97.4428 116.495 87.5152 117.524C77.0333 118.61 67.7105 124.105 61.0122 131.618C53.5439 139.995 49.4742 150.441 47.892 161.182C47.0687 166.981 46.7976 172.838 47.0821 178.683C47.0704 181.26 47.5396 183.82 48.4686 186.245C49.5286 188.605 51.4451 190.536 53.8773 191.694C56.6657 192.959 59.5324 194.065 62.462 195.007L72.1908 198.555L91.301 205.525L96.1654 207.299C97.5135 207.791 98.0975 205.751 96.7624 205.265Z" fill="#2F2E41"/>
<path d="M55.2423 133.554C52.9474 133.554 50.704 132.914 48.7959 131.716C46.8878 130.518 45.4006 128.816 44.5224 126.823C43.6442 124.831 43.4144 122.639 43.8621 120.524C44.3098 118.409 45.4149 116.466 47.0376 114.942C48.6603 113.417 50.7278 112.378 52.9786 111.958C55.2294 111.537 57.5624 111.753 59.6826 112.578C61.8028 113.403 63.6149 114.801 64.8899 116.594C66.1649 118.387 66.8454 120.495 66.8454 122.651C66.8419 125.542 65.6183 128.313 63.4431 130.357C61.2678 132.401 58.3186 133.55 55.2423 133.554ZM55.2423 113.858C53.3916 113.858 51.5824 114.374 50.0436 115.34C48.5048 116.306 47.3055 117.68 46.5972 119.286C45.889 120.893 45.7037 122.661 46.0647 124.366C46.4258 126.072 47.317 127.639 48.6256 128.868C49.9343 130.098 51.6016 130.935 53.4167 131.275C55.2319 131.614 57.1133 131.44 58.8232 130.774C60.533 130.109 61.9944 128.982 63.0226 127.536C64.0508 126.09 64.5996 124.39 64.5996 122.651C64.5968 120.32 63.6101 118.085 61.8558 116.437C60.1016 114.788 57.7231 113.861 55.2423 113.858Z" fill="#2F2E41"/>
<path d="M249.204 201.119L224.09 183.071L204.882 206.669L229.996 224.718L249.204 201.119Z" fill="#F0F0F0"/>
<path d="M107.269 40.0008C111.237 39.9979 115.151 40.8681 118.697 42.5418C122.243 44.2155 125.322 46.6461 127.689 49.639L142.353 31.6222L98.3521 0L64.699 41.3454L83.6633 54.9745C85.5611 50.5518 88.8225 46.7632 93.0288 44.0951C97.235 41.4269 102.194 40.0012 107.269 40.0008Z" fill="#F0F0F0"/>
<path d="M529.251 391H0.748588C0.55005 391 0.359643 390.926 0.219256 390.794C0.0788683 390.662 0 390.483 0 390.297C0 390.11 0.0788683 389.931 0.219256 389.799C0.359643 389.667 0.55005 389.593 0.748588 389.593H529.251C529.45 389.593 529.64 389.667 529.781 389.799C529.921 389.931 530 390.11 530 390.297C530 390.483 529.921 390.662 529.781 390.794C529.64 390.926 529.45 391 529.251 391Z" fill="#3F3D56"/>
<path d="M400.26 274.284H346.465C344.481 274.281 342.578 273.54 341.174 272.221C339.771 270.902 338.982 269.114 338.979 267.249V263.748C338.982 261.883 339.771 260.095 341.174 258.777C342.578 257.458 344.481 256.716 346.465 256.714H400.26C402.245 256.716 404.148 257.458 405.551 258.777C406.954 260.095 407.744 261.883 407.746 263.748V267.249C407.744 269.114 406.954 270.902 405.551 272.221C404.148 273.54 402.245 274.281 400.26 274.284Z" fill="white"/>
<path d="M405.929 267.534H352.133C350.049 267.532 348.052 266.753 346.578 265.368C345.104 263.984 344.276 262.106 344.273 260.148V256.647C344.276 254.689 345.104 252.811 346.578 251.427C348.052 250.042 350.049 249.263 352.133 249.261H405.929C408.012 249.263 410.01 250.042 411.484 251.427C412.957 252.811 413.786 254.689 413.789 256.647V260.148C413.786 262.106 412.957 263.984 411.484 265.368C410.01 266.753 408.012 267.532 405.929 267.534ZM352.133 250.668C350.446 250.67 348.829 251.3 347.636 252.421C346.443 253.542 345.772 255.062 345.77 256.647V260.148C345.772 261.733 346.443 263.253 347.636 264.374C348.829 265.495 350.446 266.125 352.133 266.127H405.929C407.616 266.125 409.233 265.495 410.426 264.374C411.619 263.253 412.29 261.733 412.292 260.148V256.647C412.29 255.062 411.619 253.542 410.426 252.421C409.233 251.3 407.616 250.67 405.929 250.668H352.133Z" fill="#3F3D56"/>
</svg>
