<svg width="70" height="70" viewBox="0 0 70 70" fill="none" xmlns="http://www.w3.org/2000/svg">
<circle cx="35" cy="35" r="32.5" stroke="#F7F7F7" stroke-width="5"/>
<path d="M45.04 44.6V49H24.4V45.52L35.52 34.96C36.7733 33.76 37.6133 32.72 38.04 31.84C38.4933 30.9333 38.72 30.04 38.72 29.16C38.72 27.8533 38.28 26.8533 37.4 26.16C36.52 25.4667 35.2267 25.12 33.52 25.12C30.6667 25.12 28.48 26.0933 26.96 28.04L23.32 25.24C24.4133 23.7733 25.88 22.64 27.72 21.84C29.5867 21.0133 31.6667 20.6 33.96 20.6C37 20.6 39.4267 21.32 41.24 22.76C43.0533 24.2 43.96 26.16 43.96 28.64C43.96 30.16 43.64 31.5867 43 32.92C42.36 34.2533 41.1333 35.7733 39.32 37.48L31.84 44.6H45.04Z" fill="white"/>
</svg>
