<svg width="485" height="350" viewBox="0 0 485 350" fill="none" xmlns="http://www.w3.org/2000/svg">
<g clip-path="url(#clip0_127_294)">
<path d="M442.859 314.856C447.112 322.466 443.505 348.169 443.505 348.169C443.505 348.169 419.885 338.049 415.632 330.442C413.594 326.788 413.073 322.465 414.183 318.422C415.293 314.38 417.944 310.949 421.552 308.883C425.161 306.818 429.432 306.286 433.427 307.406C437.422 308.526 440.814 311.206 442.859 314.856V314.856Z" fill="#F1F1F1"/>
<path d="M443.848 348.136L443.346 348.243C438.513 325.002 421.635 309.242 421.465 309.086L421.81 308.702C421.981 308.86 438.979 324.727 443.848 348.136Z" fill="white"/>
<path d="M481.508 323.521C475.736 334.119 443.193 348.475 443.193 348.475C443.193 348.475 437.828 312.958 443.597 302.364C446.369 297.275 451.024 293.51 456.539 291.896C462.054 290.282 467.977 290.951 473.004 293.757C478.032 296.563 481.752 301.275 483.347 306.856C484.941 312.438 484.28 318.433 481.508 323.521Z" fill="#F1F1F1"/>
<path d="M443.48 348.86L442.991 348.339C466.54 325.704 472.636 294.134 472.695 293.818L473.393 293.951C473.334 294.269 467.2 326.06 443.48 348.86Z" fill="white"/>
<path d="M114.025 243.273C110.301 243.261 106.593 242.775 102.988 241.828L102.277 241.629L101.618 241.295C77.7894 229.203 57.6864 213.231 41.8675 193.823C28.7727 177.662 18.5634 159.314 11.6987 139.602C3.48958 116.003 -0.459808 91.102 0.0390651 66.0878C0.0491314 65.5627 0.0576506 65.1573 0.0576506 64.878C0.0576506 52.7184 6.72627 42.0493 17.0467 37.6969C24.9455 34.3659 96.6624 4.55167 101.844 2.39751C111.603 -2.55147 122.013 1.57923 123.679 2.30158C127.416 3.84796 193.714 31.2934 208.041 38.1983C222.807 45.3146 226.746 58.0989 226.746 64.5309C226.746 93.6506 221.763 120.865 211.936 145.419C204 165.293 192.751 183.641 178.68 199.663C151.533 230.584 124.378 241.546 124.116 241.643C120.871 242.773 117.457 243.325 114.025 243.273ZM107.639 227.263C109.993 227.798 115.413 228.599 118.946 227.295C123.434 225.638 146.162 213.709 167.401 189.519C196.745 156.095 211.635 114.08 211.656 64.6383C211.604 63.6367 210.901 56.4925 201.554 51.9876C187.505 45.2163 118.594 16.697 117.899 16.4096L117.709 16.3279C116.265 15.7154 111.669 14.4252 108.5 16.1055L107.866 16.4048C107.098 16.7241 30.9697 48.3708 22.8505 51.7948C17.171 54.1899 15.1474 60.1236 15.1474 64.878C15.1474 65.2255 15.1385 65.7309 15.1259 66.3841C14.477 100.214 22.2116 183.458 107.639 227.263Z" fill="#3F3D56"/>
<path d="M105 9.34101C105 9.34101 28.1794 41.2748 19.9486 44.7459C11.7179 48.2169 7.6025 56.5475 7.6025 64.8781C7.6025 73.2086 1.42945 181.911 105 234.469C105 234.469 114.4 237.101 121.531 234.469C128.663 231.836 219.201 187.407 219.201 64.5309C219.201 64.5309 219.201 52.0351 204.797 45.093C190.394 38.1508 120.754 9.34101 120.754 9.34101C120.754 9.34101 112.202 5.52284 105 9.34101Z" fill="white"/>
<path opacity="0.1" d="M113.23 34.3326V204.688C113.23 204.688 35.7241 166.927 36.41 67.6549L113.23 34.3326Z" fill="black"/>
<path d="M114.241 156.769L89.5515 124.639L103.91 113.336L115.6 128.55L155.093 86.3541L168.299 99.0183L114.241 156.769Z" fill="white"/>
<path d="M484.408 350H258.805C258.647 350 258.497 349.937 258.386 349.824C258.275 349.712 258.212 349.56 258.212 349.401C258.212 349.242 258.275 349.089 258.386 348.977C258.497 348.865 258.647 348.801 258.805 348.801H484.408C484.565 348.801 484.716 348.865 484.827 348.977C484.938 349.089 485 349.242 485 349.401C485 349.56 484.938 349.712 484.827 349.824C484.716 349.937 484.565 350 484.408 350Z" fill="#CACACA"/>
<path d="M324.02 340.553L333.177 340.552L337.534 304.802L324.018 304.802L324.02 340.553Z" fill="#FFB8B8"/>
<path d="M321.683 337.527L339.718 337.526H339.719C342.767 337.526 345.69 338.752 347.846 340.933C350.001 343.115 351.212 346.073 351.212 349.159V349.537L321.684 349.538L321.683 337.527Z" fill="#2F2E41"/>
<path d="M354.811 340.553L363.968 340.552L368.325 304.802L354.809 304.802L354.811 340.553Z" fill="#FFB8B8"/>
<path d="M352.474 337.527L370.509 337.526H370.51C373.558 337.526 376.481 338.752 378.637 340.933C380.792 343.115 382.003 346.073 382.003 349.159V349.537L352.475 349.538L352.474 337.527Z" fill="#2F2E41"/>
<path d="M338.413 215.004L340.61 328.425L322.84 327.309L310.511 255.067L306.617 205.81L338.413 215.004Z" fill="#2F2E41"/>
<path d="M368.911 195.959L371.401 330.223L350.676 329.623L346.2 249.812L338.413 220.915L306.618 205.81L311.809 169.689L358.529 169.032L368.911 195.959Z" fill="#2F2E41"/>
<path d="M333.18 75.7727C341.957 75.7727 349.072 68.5714 349.072 59.6881C349.072 50.8048 341.957 43.6035 333.18 43.6035C324.403 43.6035 317.288 50.8048 317.288 59.6881C317.288 68.5714 324.403 75.7727 333.18 75.7727Z" fill="#FFB8B8"/>
<path d="M346.361 82.5485L348.795 86.281L355.284 104.67L350.093 176.256L319.595 176.913L315.703 94.8182L323.858 84.5004L346.361 82.5485Z" fill="#CCCCCC"/>
<path d="M303.373 96.7888L298.182 96.1321C298.182 96.1321 296.885 96.7888 296.236 101.386C295.587 105.983 287.8 146.702 287.8 146.702L298.182 196.615L309.862 180.853L302.725 153.27L309.862 125.686L303.373 96.7888Z" fill="#2F2E41"/>
<path d="M369.56 96.1326H373.453L383.186 149.329L374.102 190.704L365.017 175.599L367.613 159.181L366.315 144.732L361.773 136.194L369.56 96.1326Z" fill="#2F2E41"/>
<path d="M342.57 59.6881L339.681 58.957C339.681 58.957 337.514 46.528 332.457 47.9902C327.401 49.4524 314.398 50.9147 314.398 45.0657C314.398 39.2168 326.679 34.099 333.902 34.8301C341.126 35.5612 350.351 37.9867 352.683 48.7213C356.422 65.9294 344.97 70.276 344.97 70.276L345.161 69.6494C345.69 67.9098 345.728 66.055 345.27 64.2947C344.812 62.5344 343.877 60.9387 342.57 59.6881Z" fill="#2F2E41"/>
<path d="M298.831 96.1321L319.595 87.5943L324.462 83.9821L339.062 149.329L345.875 82.0118L372.804 96.132L363.72 140.791L362.422 157.867L366.315 171.659C366.315 171.659 379.942 181.51 375.4 192.018C370.857 202.526 365.666 203.183 365.666 203.183C365.666 203.183 343.604 182.167 342.306 176.913C341.009 171.659 339.062 162.464 339.062 162.464C339.062 162.464 328.031 204.496 315.053 203.84C302.076 203.183 302.076 189.391 302.076 189.391L305.32 174.942L310.511 159.837L307.916 134.88L298.831 96.1321Z" fill="#2F2E41"/>
</g>
<defs>
<clipPath id="clip0_127_294">
<rect width="485" height="350" fill="white"/>
</clipPath>
</defs>
</svg>
